<svg width="18" height="18" viewBox="0 0 18 18" fill="none" xmlns="http://www.w3.org/2000/svg">
<path fill-rule="evenodd" clip-rule="evenodd" d="M16.4886 8.58186C15.5877 9.45941 14.357 9.99999 13 9.99999C10.2386 9.99999 8 7.76142 8 4.99999C8 3.64301 8.54058 2.41228 9.41813 1.51141C9.57056 1.35494 9.73311 1.20844 9.90478 1.07295C10.2898 0.769107 10.2101 0.0672333 9.72122 0.0284691C9.43254 0.00557958 9.1383 -0.00365545 8.84492 0.00130131C3.9459 0.0840722 0 4.08123 0 8.99999C0 13.9706 4.02944 18 9 18C13.9188 18 17.9159 14.0541 17.9987 9.15507C18.0036 8.86165 17.9944 8.56746 17.9715 8.27878C17.9328 7.78988 17.2309 7.71024 16.927 8.09521C16.7915 8.26688 16.6451 8.42945 16.4886 8.58186ZM15.2991 11.0814C15.7079 10.9267 16.1623 11.2747 16.0059 11.6828C14.9265 14.4999 12.1968 16.5 9 16.5C4.85786 16.5 1.5 13.1421 1.5 8.99999C1.5 5.80319 3.50007 3.07353 6.31715 1.99409C6.72532 1.83769 7.0733 2.2921 6.91862 2.70092C6.64821 3.41562 6.5 4.19056 6.5 4.99999C6.5 8.58984 9.41015 11.5 13 11.5C13.8094 11.5 14.5844 11.3518 15.2991 11.0814Z" fill="white"/>
</svg>
