<svg width="24" height="24" viewBox="0 0 24 24" fill="none" xmlns="http://www.w3.org/2000/svg">
<path d="M23.2479 8.99997C23.6627 8.99997 23.9992 8.66248 23.9962 8.24768C23.9778 5.65192 23.8678 4.17733 23.2118 3.02721C22.6794 2.09384 21.9061 1.32056 20.9727 0.788174C19.8226 0.132152 18.348 0.0221324 15.7522 0.00368134C15.3374 0.000732908 14.9999 0.337238 14.9999 0.752048C14.9999 1.16571 15.3349 1.50083 15.7485 1.50378C16.763 1.51101 17.5672 1.53195 18.2418 1.59249C19.2368 1.68178 19.8031 1.84788 20.2295 2.09112C20.9296 2.49041 21.5095 3.07037 21.9088 3.7704C22.1521 4.19685 22.3181 4.76317 22.4074 5.75815C22.468 6.4327 22.4889 7.23688 22.4961 8.25134C22.4991 8.665 22.8342 8.99997 23.2479 8.99997Z" fill="#9EA9A9"/>
<path d="M3.02721 0.788174C4.17732 0.132161 5.6519 0.0221355 8.24762 0.00368196C8.66242 0.000733053 8.99991 0.337238 8.99991 0.752048C8.99991 1.16571 8.66494 1.50083 8.25129 1.50378C7.23685 1.51101 6.43269 1.53195 5.75815 1.59249C4.76317 1.68178 4.19685 1.84788 3.7704 2.09112C3.07037 2.49041 2.49041 3.07037 2.09112 3.7704C1.84788 4.19685 1.68178 4.76317 1.59249 5.75815C1.53195 6.4327 1.51101 7.23688 1.50378 8.25134C1.50083 8.665 1.16571 8.99997 0.752048 8.99997C0.337238 8.99997 0.000732695 8.66247 0.00368134 8.24767C0.0221335 5.65192 0.132156 4.17733 0.788174 3.02721C1.32056 2.09384 2.09384 1.32056 3.02721 0.788174Z" fill="#9EA9A9"/>
<path d="M0.752048 15C0.337238 15 0.000732716 15.3375 0.00368139 15.7523C0.0221337 18.348 0.132157 19.8226 0.788174 20.9727C1.32056 21.9061 2.09384 22.6794 3.02721 23.2118C4.17732 23.8678 5.6519 23.9778 8.24762 23.9962C8.66242 23.9992 8.99991 23.6627 8.99991 23.2479C8.99991 22.8342 8.66494 22.4991 8.25129 22.4961C7.23685 22.4889 6.43269 22.468 5.75815 22.4074C4.76317 22.3181 4.19685 22.1521 3.7704 21.9088C3.07037 21.5095 2.49041 20.9296 2.09112 20.2295C1.84788 19.8031 1.68178 19.2368 1.59249 18.2418C1.53195 17.5672 1.51101 16.7631 1.50378 15.7486C1.50083 15.3349 1.16571 15 0.752048 15Z" fill="#9EA9A9"/>
<path d="M22.4961 15.7486C22.4991 15.3349 22.8342 15 23.2479 15C23.6627 15 23.9992 15.3375 23.9962 15.7523C23.9778 18.348 23.8678 19.8226 23.2118 20.9727C22.6794 21.9061 21.9061 22.6794 20.9727 23.2118C19.8226 23.8678 18.348 23.9778 15.7522 23.9962C15.3374 23.9992 14.9999 23.6627 14.9999 23.2479C14.9999 22.8342 15.3349 22.4991 15.7485 22.4962C16.763 22.4889 17.5672 22.468 18.2418 22.4074C19.2368 22.3181 19.8031 22.1521 20.2295 21.9088C20.9296 21.5095 21.5095 20.9296 21.9088 20.2295C22.1521 19.8031 22.3181 19.2368 22.4074 18.2418C22.468 17.5672 22.4889 16.7631 22.4961 15.7486Z" fill="#9EA9A9"/>
<path fill-rule="evenodd" clip-rule="evenodd" d="M6.49994 3.99997C5.11922 3.99997 3.99994 5.11926 3.99994 6.49997V8.49997C3.99994 9.88068 5.11922 11 6.49994 11H8.49994C9.88065 11 10.9999 9.88068 10.9999 8.49997V6.49997C10.9999 5.11926 9.88065 3.99997 8.49994 3.99997H6.49994ZM8.49994 5.49997H6.49994C5.94765 5.49997 5.49994 5.94768 5.49994 6.49997V8.49997C5.49994 9.05225 5.94765 9.49997 6.49994 9.49997H8.49994C9.05222 9.49997 9.49994 9.05225 9.49994 8.49997V6.49997C9.49994 5.94768 9.05222 5.49997 8.49994 5.49997Z" fill="#9EA9A9"/>
<path fill-rule="evenodd" clip-rule="evenodd" d="M12.9999 6.49997C12.9999 5.11926 14.1192 3.99997 15.4999 3.99997H17.4999C18.8806 3.99997 19.9999 5.11926 19.9999 6.49997V8.49997C19.9999 9.88068 18.8806 11 17.4999 11H15.4999C14.1192 11 12.9999 9.88068 12.9999 8.49997V6.49997ZM15.4999 5.49997H17.4999C18.0522 5.49997 18.4999 5.94768 18.4999 6.49997V8.49997C18.4999 9.05225 18.0522 9.49997 17.4999 9.49997H15.4999C14.9477 9.49997 14.4999 9.05225 14.4999 8.49997V6.49997C14.4999 5.94768 14.9477 5.49997 15.4999 5.49997Z" fill="#9EA9A9"/>
<path fill-rule="evenodd" clip-rule="evenodd" d="M6.49994 13C5.11922 13 3.99994 14.1193 3.99994 15.5V17.5C3.99994 18.8807 5.11922 20 6.49994 20H8.49994C9.88065 20 10.9999 18.8807 10.9999 17.5V15.5C10.9999 14.1193 9.88065 13 8.49994 13H6.49994ZM8.49994 14.5H6.49994C5.94765 14.5 5.49994 14.9477 5.49994 15.5V17.5C5.49994 18.0523 5.94765 18.5 6.49994 18.5H8.49994C9.05222 18.5 9.49994 18.0523 9.49994 17.5V15.5C9.49994 14.9477 9.05222 14.5 8.49994 14.5Z" fill="#9EA9A9"/>
<path d="M12.9999 15.5C12.9999 15.0353 12.9999 14.803 13.0384 14.6098C13.1962 13.8164 13.8164 13.1962 14.6098 13.0384C14.803 13 15.0353 13 15.4999 13V15.5H12.9999Z" fill="#9EA9A9"/>
<path d="M17.4999 13C17.9646 13 18.1969 13 18.3901 13.0384C19.1835 13.1962 19.8037 13.8164 19.9615 14.6098C19.9999 14.803 19.9999 15.0353 19.9999 15.5H17.4999V13Z" fill="#9EA9A9"/>
<path d="M17.4999 17.5H19.9999C19.9999 17.9646 19.9999 18.197 19.9615 18.3901C19.8037 19.1835 19.1835 19.8037 18.3901 19.9615C18.1969 20 17.9646 20 17.4999 20V17.5Z" fill="#9EA9A9"/>
<path d="M12.9999 17.5H15.4999V20C15.0353 20 14.803 20 14.6098 19.9615C13.8164 19.8037 13.1962 19.1835 13.0384 18.3901C12.9999 18.197 12.9999 17.9646 12.9999 17.5Z" fill="#9EA9A9"/>
</svg>
