<svg width="22" height="22" viewBox="0 0 22 22" fill="none" xmlns="http://www.w3.org/2000/svg">
<path d="M11 0.75C11.4142 0.75 11.75 1.08579 11.75 1.5V3.5C11.75 3.91421 11.4142 4.25 11 4.25C10.5858 4.25 10.25 3.91421 10.25 3.5V1.5C10.25 1.08579 10.5858 0.75 11 0.75Z" fill="white"/>
<path fill-rule="evenodd" clip-rule="evenodd" d="M6.75 11C6.75 8.65279 8.65279 6.75 11 6.75C13.3472 6.75 15.25 8.65279 15.25 11C15.25 13.3472 13.3472 15.25 11 15.25C8.65279 15.25 6.75 13.3472 6.75 11ZM11 8.25C9.48122 8.25 8.25 9.48122 8.25 11C8.25 12.5188 9.48122 13.75 11 13.75C12.5188 13.75 13.75 12.5188 13.75 11C13.75 9.48122 12.5188 8.25 11 8.25Z" fill="white"/>
<path d="M11.75 18.5C11.75 18.0858 11.4142 17.75 11 17.75C10.5858 17.75 10.25 18.0858 10.25 18.5V20.5C10.25 20.9142 10.5858 21.25 11 21.25C11.4142 21.25 11.75 20.9142 11.75 20.5V18.5Z" fill="white"/>
<path d="M3.75225 3.75216C4.04515 3.45926 4.52002 3.45926 4.81291 3.75216L6.22713 5.16637C6.52002 5.45926 6.52002 5.93414 6.22713 6.22703C5.93423 6.51992 5.45936 6.51992 5.16647 6.22703L3.75225 4.81282C3.45936 4.51992 3.45936 4.04505 3.75225 3.75216Z" fill="white"/>
<path d="M16.8337 15.773C16.5408 15.4801 16.0659 15.4801 15.773 15.773C15.4801 16.0659 15.4801 16.5407 15.773 16.8336L17.1872 18.2478C17.4801 18.5407 17.955 18.5407 18.2479 18.2478C18.5408 17.9549 18.5408 17.4801 18.2479 17.1872L16.8337 15.773Z" fill="white"/>
<path d="M21.25 11C21.25 11.4142 20.9142 11.75 20.5 11.75H18.5C18.0858 11.75 17.75 11.4142 17.75 11C17.75 10.5858 18.0858 10.25 18.5 10.25H20.5C20.9142 10.25 21.25 10.5858 21.25 11Z" fill="white"/>
<path d="M3.5 11.75C3.91421 11.75 4.25 11.4142 4.25 11C4.25 10.5858 3.91421 10.25 3.5 10.25H1.5C1.08579 10.25 0.75 10.5858 0.75 11C0.75 11.4142 1.08579 11.75 1.5 11.75H3.5Z" fill="white"/>
<path d="M18.2479 3.75216C18.5408 4.04506 18.5408 4.51993 18.2479 4.81282L16.8336 6.22704C16.5408 6.51993 16.0659 6.51993 15.773 6.22704C15.4801 5.93414 15.4801 5.45927 15.773 5.16638L17.1872 3.75216C17.4801 3.45927 17.955 3.45927 18.2479 3.75216Z" fill="white"/>
<path d="M6.22711 16.8336C6.52 16.5407 6.52 16.0659 6.22711 15.773C5.93421 15.4801 5.45934 15.4801 5.16645 15.773L3.75223 17.1872C3.45934 17.4801 3.45934 17.955 3.75223 18.2478C4.04513 18.5407 4.52 18.5407 4.81289 18.2478L6.22711 16.8336Z" fill="white"/>
</svg>
