<svg height="32" viewBox="0 0 32 32" width="32" xmlns="http://www.w3.org/2000/svg"><g fill="none" fill-rule="evenodd"><path d="m16 32c8.836556 0 16-7.163444 16-16s-7.163444-16-16-16-16 7.163444-16 16 7.163444 16 16 16z" fill="#222"/><path d="m12.699847 10.8212511h-2.038917v1.9381165h2.4421185v1.0080039h-3.73419615v-6.67115295h3.72503255v1.01258572h-2.4329549v1.70444292h2.038917zm2.5154278.2703283v2.6757921h-1.2920777v-6.66657111h1.9976805c.6628422 0 1.1844026.17258075 1.5646969.51774744s.5704385.82625464.5704385 1.44327828c0 .3451667-.0801813.64451031-.2405463.89803982-.1603651.25352947-.3917455.45512827-.6941482.60480237.3482213.1160737.5986925.3085089.7514211.5773113s.2290918.6048003.2290918 1.0080039v.4856745c0 .186329.0213817.3818187.0641457.586475.042764.2046564.1191272.3543282.2290918.4490199v.0962186h-1.3378961c-.10691-.0977463-.1748732-.2573453-.2038917-.4788018-.0290184-.2214566-.0435274-.4421461-.0435274-.6620753v-.4673473c0-.3390575-.0702541-.6017468-.2107644-.7880757-.1405104-.186329-.3421091-.279492-.6048024-.279492zm0-1.0080039h.6964391c.2779661 0 .4894921-.0832359.6345842-.24971005.1450922-.1664742.2176372-.40243639.2176372-.70789363 0-.3115664-.0717813-.55898306-.2153462-.74225741-.1435649-.18327434-.3528-.27491014-.6277115-.27491014h-.7056028zm8.2564682 1.6128062.0091636.027491c.0122183.71477-.1702896 1.2500758-.5475293 1.6059335s-.9156001.5337838-1.6150972.5337838c-.7178245 0-1.2874937-.2115259-1.7090247-.6345842s-.6322934-1.0240364-.6322934-1.8029524v-1.97935308c0-.77586141.2038897-1.37760316.6116751-1.80524331.4077854-.42764014.9583639-.64145701 1.6517518-.64145701.7300429 0 1.2905485.17716255 1.6815338.53149295.3909853.35433041.5803659.89039984.5681476 1.60822437l-.0091637.02749102h-1.255423c0-.42764015-.0755995-.72698376-.2268008-.89803982-.1512014-.17105606-.4039635-.25658281-.7582939-.25658281-.3237847 0-.5666195.11683565-.7285119.35051044-.1618923.2336748-.2428373.59181805-.2428373 1.0744405v1.98851675c0 .485677.087054.8453475.2611647 1.0790223.1741106.2336748.4367999.3505105.7880757.3505105.3207302 0 .5513469-.0847631.6918572-.2542919.1405104-.1695288.2107645-.4711633.2107645-.9049126zm-7.7190188 14.2696695h-6.53919609v-1.3782163l2.95436769-3.731447c.4203092-.5669287.7220965-1.055653.9053708-1.4661875s.2749101-.7844086.2749101-1.1216334c0-.464295-.0891921-.83206-.2675792-1.1033061-.178387-.271246-.4532944-.406867-.8247304-.406867-.386098 0-.682998.1722753-.8907089.5168311s-.3115648.7856294-.3115648 1.3232342h-2.03066966l-.02199281-.0439857c-.01954926-.9530266.26879805-1.7606434.8650506-2.4228747.59625257-.6622313 1.39287307-.993342 2.38988557-.993342 1.0116744 0 1.794855.2797946 2.3495654.8393923s.8320614 1.3207857.8320614 2.283587c0 .650013-.1600572 1.2487002-.4801764 1.7960796s-.8564941 1.2780222-1.6091408 2.1919502l-1.4515255 2.1039791h3.856073zm7.7927863-3.8707349c0 1.2560402-.3005654 2.2408196-.9017053 2.9543677-.6011398.7135481-1.3928731 1.0703168-2.3752236 1.0703168-.9970125 0-1.7972985-.3567687-2.400882-1.0703168s-.9053708-1.6983275-.9053708-2.9543677v-2.925044c0-1.2462656.3005655-2.2298232.9017053-2.9507023.6011399-.7208791 1.3977604-1.0813132 2.3898856-1.0813132.9872378 0 1.7826366.3604341 2.3862201 1.0813132s.9053707 1.7044367.9053707 2.9507023zm-2.0746552-3.1083175c0-.7037735-.1087412-1.2511446-.3262267-1.6421299-.2174856-.3909853-.5143856-.586475-.8907089-.586475-.386098 0-.6854416.1954897-.8980398.586475-.2125983.3909853-.3188958.9383564-.3188958 1.6421299v3.276929c0 .7184355.1075193 1.2719157.3225612 1.6604573s.518051.5828095.9090363.5828095c.3763233 0 .6707797-.1942679.8833779-.5828095s.3188958-.9420218.3188958-1.6604573z" fill="#fff"/></g></svg>