<svg fill="none" height="800" viewBox="0 0 800 800" width="800" xmlns="http://www.w3.org/2000/svg"><rect fill="#e6007a" height="800" rx="400" width="800"/><g fill="#fff"><path d="m400.072 246.038c52.594 0 95.23-24.857 95.23-55.519s-42.636-55.519-95.23-55.519-95.229 24.857-95.229 55.519 42.635 55.519 95.229 55.519z"/><path d="m400.072 664.364c52.594 0 95.23-24.857 95.23-55.519s-42.636-55.519-95.23-55.519-95.229 24.857-95.229 55.519 42.635 55.519 95.229 55.519z"/><path d="m267.363 322.89c26.297-45.657 26.126-95.105-.381-110.447-26.507-15.341-69.314 9.234-95.611 54.89s-26.126 95.105.382 110.446c26.507 15.342 69.313-9.233 95.61-54.889z"/><path d="m628.731 532.027c26.297-45.656 26.141-95.096-.349-110.427-26.489-15.331-69.281 9.252-95.578 54.908-26.297 45.657-26.141 95.097.349 110.428s69.281-9.252 95.578-54.909z"/><path d="m266.996 586.923c26.507-15.341 26.678-64.79.381-110.446s-69.103-70.231-95.611-54.89c-26.507 15.342-26.678 64.79-.381 110.447 26.297 45.656 69.103 70.231 95.611 54.889z"/><path d="m628.405 377.792c26.489-15.331 26.646-64.772.349-110.428s-69.089-70.24-95.579-54.909c-26.489 15.332-26.645 64.772-.348 110.428s69.088 70.24 95.578 54.909z"/></g></svg>