<svg width="512" height="512" viewBox="0 0 512 512" fill="none" xmlns="http://www.w3.org/2000/svg">
<path d="M431 320.6C430 317 432.2 312 434.3 308.4C434.942 307.329 435.643 306.294 436.4 305.3C454.363 278.608 463.971 247.173 464 215C464.3 122.8 386.5 48 290.3 48C206.4 48 136.4 105.1 120 180.9C117.547 192.135 116.306 203.6 116.3 215.1C116.3 307.4 191.1 384.2 287.3 384.2C302.6 384.2 323.2 379.6 334.5 376.5C345.8 373.4 357 369.3 359.9 368.2C362.873 367.079 366.023 366.503 369.2 366.5C372.666 366.487 376.1 367.167 379.3 368.5L436 388.6C437.243 389.126 438.557 389.463 439.9 389.6C442.022 389.6 444.057 388.757 445.557 387.257C447.057 385.757 447.9 383.722 447.9 381.6C447.83 380.685 447.663 379.78 447.4 378.9L431 320.6Z" stroke="url(#paint0_linear_0_1)" stroke-width="32" stroke-miterlimit="10" stroke-linecap="round"/>
<path d="M66.46 232C53.3443 255.562 46.9996 282.293 48.1273 309.236C49.255 336.179 57.8112 362.286 72.85 384.67C75.16 388.16 76.46 390.86 76.06 392.67C75.66 394.48 64.13 454.54 64.13 454.54C63.8527 455.946 63.9579 457.4 64.4346 458.751C64.9113 460.102 65.742 461.3 66.84 462.22C68.3051 463.387 70.1268 464.016 72 464C73.001 464.003 73.9917 463.798 74.91 463.4L131.12 441.4C134.989 439.875 139.304 439.947 143.12 441.6C162.06 448.98 183 453.6 203.95 453.6C232.063 453.63 259.682 446.215 284 432.11" stroke="url(#paint1_linear_0_1)" stroke-width="32" stroke-miterlimit="10" stroke-linecap="round"/>
<defs>
<linearGradient id="paint0_linear_0_1" x1="290.15" y1="48" x2="290.15" y2="389.6" gradientUnits="userSpaceOnUse">
<stop stop-color="#A562D5"/>
<stop offset="0.0001" stop-color="#A562D5"/>
<stop offset="1" stop-color="#306FEB"/>
</linearGradient>
<linearGradient id="paint1_linear_0_1" x1="166" y1="232" x2="166" y2="464" gradientUnits="userSpaceOnUse">
<stop stop-color="#A562D5"/>
<stop offset="0.0001" stop-color="#A562D5"/>
<stop offset="1" stop-color="#306FEB"/>
</linearGradient>
</defs>
</svg>
