<svg width="512" height="512" viewBox="0 0 512 512" fill="none" xmlns="http://www.w3.org/2000/svg">
<path d="M336 64H368C380.73 64 392.939 69.0571 401.941 78.0589C410.943 87.0606 416 99.2696 416 112V432C416 444.73 410.943 456.939 401.941 465.941C392.939 474.943 380.73 480 368 480H144C131.27 480 119.061 474.943 110.059 465.941C101.057 456.939 96 444.73 96 432V112C96 99.2696 101.057 87.0606 110.059 78.0589C119.061 69.0571 131.27 64 144 64H176" stroke="white" stroke-width="32" stroke-linejoin="round"/>
<path d="M309.87 32H202.13C187.699 32 176 43.6988 176 58.13V69.87C176 84.3012 187.699 96 202.13 96H309.87C324.301 96 336 84.3012 336 69.87V58.13C336 43.6988 324.301 32 309.87 32Z" stroke="white" stroke-width="32" stroke-linejoin="round"/>
</svg>
