<svg width="678" height="231" viewBox="0 0 678 231" fill="none" xmlns="http://www.w3.org/2000/svg">
<path d="M142.672 112.906C143.524 114.31 143.524 116.068 142.672 117.471L75.4402 228.258C73.7197 231.094 69.5948 231.094 67.8741 228.259L0.638744 117.479C-0.212893 116.075 -0.212916 114.317 0.638683 112.914L67.8743 2.12631C69.5949 -0.70876 73.7198 -0.708775 75.4403 2.12629L142.672 112.906ZM32.2501 108.476C30.4663 111.414 32.5881 115.167 36.0328 115.167H107.285C110.73 115.167 112.852 111.414 111.068 108.476L75.4401 49.7931C73.7193 46.9588 69.5954 46.9589 67.8747 49.7932L32.2501 108.476ZM71.6573 77.4093C78.5863 77.4093 84.2041 83.0208 84.2041 89.9417C84.2034 96.8618 78.5856 102.47 71.6573 102.47C64.7286 102.47 59.1113 96.8618 59.1102 89.9417C59.1102 83.0208 64.7283 77.4093 71.6573 77.4093Z" fill="url(#paint0_linear_3997_2455)"/>
<path d="M628.95 33.6271H677.251V196.276H628.95V33.6271Z" fill="#DCE4FF"/>
<path d="M417.131 33.6271H503.365C565.789 33.6271 604.747 59.2966 604.747 113.929V115.974C604.747 170.72 565.906 196.276 503.365 196.276H417.131V33.6271ZM465.432 158.567H502.682C539.59 158.567 554.967 144.71 554.967 115.86V114.043C554.967 85.1929 539.478 71.3363 502.682 71.3363H465.432V158.567Z" fill="#DCE4FF"/>
<path d="M181.401 196.276L261.255 33.6272H318.668L398.637 196.276H346.464L331.769 164.473H246.218L231.523 196.276H181.401ZM262.053 130.512H315.935L289.051 72.3585L262.053 130.512Z" fill="#DCE4FF"/>
<defs>
<linearGradient id="paint0_linear_3997_2455" x1="71.6553" y1="89.259" x2="71.6553" y2="192.993" gradientUnits="userSpaceOnUse">
<stop stop-color="#FE7109"/>
<stop offset="1" stop-color="#003BFF"/>
</linearGradient>
</defs>
</svg>
