<svg fill="none" height="238" viewBox="0 0 388 238" width="388" xmlns="http://www.w3.org/2000/svg"><path d="m79.4993 46.539c63.2167-61.894 165.7097-61.894 228.9267 0l7.608 7.449c3.161 3.0947 3.161 8.1122 0 11.2069l-26.026 25.4817c-1.581 1.5473-4.143 1.5473-5.723 0l-10.47-10.2508c-44.101-43.1788-115.604-43.1788-159.705 0l-11.212 10.9777c-1.581 1.5474-4.1429 1.5474-5.7233 0l-26.0261-25.4816c-3.1608-3.0947-3.1608-8.1123 0-11.2069zm282.7507 52.6988 23.163 22.6792c3.161 3.094 3.161 8.112 0 11.206l-104.444 102.262c-3.161 3.095-8.286 3.095-11.447 0l-74.128-72.578c-.79-.774-2.072-.774-2.862 0l-74.127 72.578c-3.161 3.095-8.285 3.095-11.446 0l-104.44771-102.263c-3.160807-3.095-3.160807-8.112 0-11.207l23.16331-22.6785c3.1608-3.0947 8.2855-3.0947 11.4463 0l74.1291 72.5795c.791.773 2.072.773 2.862 0v-.001l74.126-72.5785c3.161-3.0948 8.285-3.0949 11.446-.0003v.0001l74.13 72.5787c.79.774 2.071.774 2.861 0l74.129-72.5772c3.16-3.0947 8.285-3.0947 11.446 0z" fill="#fff"/></svg>