<?xml version="1.0" encoding="utf-8"?>
<!-- Generator: Adobe Illustrator 26.0.3, SVG Export Plug-In . SVG Version: 6.00 Build 0)  -->
<svg version="1.0" id="katman_1" xmlns="http://www.w3.org/2000/svg" xmlns:xlink="http://www.w3.org/1999/xlink" x="0px" y="0px"
	 viewBox="0 0 800 600" style="enable-background:new 0 0 800 600;" xml:space="preserve">
<style type="text/css">
	.st0{fill:#2C7DF7;}
	.st1{fill:#FFFFFF;}
</style>
<path class="st0" d="M399.8,559.9c143.8,0,260.3-116.6,260.3-260.3S543.6,39.2,399.8,39.2c-143.8,0-260.3,116.6-260.3,260.3
	S256,559.9,399.8,559.9z"/>
<path class="st1" d="M424.8,449.1c-21.1,0-36.4-5.1-46.1-15.2c-9-8.6-14.2-20.4-14.5-32.8c-0.1-3.8,0.8-7.5,2.5-10.8
	c1.7-2.9,4-5.3,6.9-6.9c3.3-1.7,7-2.5,10.8-2.5c3.7,0,7.4,0.9,10.8,2.5c2.9,1.6,5.2,4,6.9,6.9c1.8,3.3,2.7,7.1,2.6,10.8
	c0.2,4.5-1.1,9-3.7,12.7c-2.2,3-5.2,5.3-8.8,6.4c3.5,4.4,8.4,7.5,13.8,8.6c6.1,1.8,12.5,2.7,18.9,2.7c8.4,0.1,16.7-2.4,23.7-7.1
	c7.3-5.1,12.7-12.5,15.5-21c3.5-10.1,5.2-20.7,5.1-31.4c0.3-11.1-1.6-22.2-5.5-32.6c-3-8.3-8.6-15.5-16-20.3
	c-6.9-4.4-14.9-6.6-23-6.6c-7.1,0.6-14,2.9-20,6.8l-14.8,7.4v-7.4l66.5-89.2h-92.2v92.6c-0.3,6.7,1.5,13.3,5.1,18.9
	c1.7,2.5,4.1,4.4,6.8,5.7c2.7,1.3,5.7,1.9,8.7,1.7c5.5-0.1,10.9-2,15.3-5.4c5-3.6,9.3-8.1,12.8-13.2c0.3-0.9,0.9-1.7,1.7-2.2
	c0.6-0.5,1.4-0.8,2.2-0.8c1.6,0.1,3.1,0.8,4.3,1.8c1.5,1.7,2.4,4,2.3,6.3c-0.2,1.6-0.5,3.1-0.8,4.6c-3.3,7.9-8.8,14.7-15.8,19.6
	c-6.5,4.4-14.3,6.8-22.2,6.7c-20,0-33.8-3.9-41.5-11.8c-4-4.3-7-9.4-9-15c-2-5.5-2.8-11.4-2.5-17.3v-92.4h-46.9v-17.2H332v-39.2
	l-10.8-10.8v-8.8h31.3l11.8,6.1v52.7l121.8-0.4l12.1,12.2l-74.7,75c4.5-1.8,9.3-3,14.1-3.4c9.6,0.4,18.9,3.1,27.3,7.8
	c9.7,4.6,17.8,11.9,23.5,21c5.1,7.7,8.7,16.3,10.6,25.3c1.6,7.1,2.4,14.4,2.5,21.7c0,13.9-3.1,27.6-9.2,40.1
	c-5.8,12.1-15.6,21.9-27.7,27.7C452.3,446,438.6,449.1,424.8,449.1L424.8,449.1z"/>
</svg>
