<svg enable-background="new 0 0 800 600" viewBox="0 0 800 600" xmlns="http://www.w3.org/2000/svg"><path d="m399.8 559.9c143.8 0 260.3-116.6 260.3-260.3s-116.5-260.4-260.3-260.4-260.3 116.6-260.3 260.3 116.5 260.4 260.3 260.4z" fill="#2c7df7"/><path d="m424.8 449.1c-21.1 0-36.4-5.1-46.1-15.2-9-8.6-14.2-20.4-14.5-32.8-.1-3.8.8-7.5 2.5-10.8 1.7-2.9 4-5.3 6.9-6.9 3.3-1.7 7-2.5 10.8-2.5 3.7 0 7.4.9 10.8 2.5 2.9 1.6 5.2 4 6.9 6.9 1.8 3.3 2.7 7.1 2.6 10.8.2 4.5-1.1 9-3.7 12.7-2.2 3-5.2 5.3-8.8 6.4 3.5 4.4 8.4 7.5 13.8 8.6 6.1 1.8 12.5 2.7 18.9 2.7 8.4.1 16.7-2.4 23.7-7.1 7.3-5.1 12.7-12.5 15.5-21 3.5-10.1 5.2-20.7 5.1-31.4.3-11.1-1.6-22.2-5.5-32.6-3-8.3-8.6-15.5-16-20.3-6.9-4.4-14.9-6.6-23-6.6-7.1.6-14 2.9-20 6.8l-14.8 7.4v-7.4l66.5-89.2h-92.2v92.6c-.3 6.7 1.5 13.3 5.1 18.9 1.7 2.5 4.1 4.4 6.8 5.7s5.7 1.9 8.7 1.7c5.5-.1 10.9-2 15.3-5.4 5-3.6 9.3-8.1 12.8-13.2.3-.9.9-1.7 1.7-2.2.6-.5 1.4-.8 2.2-.8 1.6.1 3.1.8 4.3 1.8 1.5 1.7 2.4 4 2.3 6.3-.2 1.6-.5 3.1-.8 4.6-3.3 7.9-8.8 14.7-15.8 19.6-6.5 4.4-14.3 6.8-22.2 6.7-20 0-33.8-3.9-41.5-11.8-4-4.3-7-9.4-9-15-2-5.5-2.8-11.4-2.5-17.3v-92.4h-46.9v-17.2h47.3v-39.2l-10.8-10.8v-8.8h31.3l11.8 6.1v52.7l121.8-.4 12.1 12.2-74.7 75c4.5-1.8 9.3-3 14.1-3.4 9.6.4 18.9 3.1 27.3 7.8 9.7 4.6 17.8 11.9 23.5 21 5.1 7.7 8.7 16.3 10.6 25.3 1.6 7.1 2.4 14.4 2.5 21.7 0 13.9-3.1 27.6-9.2 40.1-5.8 12.1-15.6 21.9-27.7 27.7-12.3 6.3-26 9.4-39.8 9.4z" fill="#fff"/></svg>