<svg fill="none" height="1672" viewBox="0 0 1672 1672" width="1672" xmlns="http://www.w3.org/2000/svg" xmlns:xlink="http://www.w3.org/1999/xlink"><linearGradient id="a" gradientUnits="userSpaceOnUse" x1="-232.429" x2="2713.69" y1="816.169" y2="813.592"><stop offset="0" stop-color="#f79420" stop-opacity=".92"/><stop offset="1" stop-color="#c4c4c4" stop-opacity="0"/></linearGradient><mask id="b" height="1672" maskUnits="userSpaceOnUse" width="1672" x="0" y="0"><circle cx="836.274" cy="836.219" fill="#c4c4c4" r="835.436"/></mask><circle cx="836.274" cy="836.219" fill="#e6007a" r="835.436"/><g mask="url(#b)"><path d="m-299.919-66.0518h2840.48v1871.38h-2840.48z" fill="url(#a)"/><path d="m-30.6062-2704.78c35.21875 421.12 207.7472 825.68 486.3782 1142.52 285.763 324.91 681.638 543.75 1106.048 621.615 209.09 38.487 427.54 45.647 637.51 9.398 199.72-34.459 401.23-121.723 514.02-299.393 50.38-78.76 81.14-172.3 79.8-266.28-1.34-100.24-43.69-190.64-105.66-267.62-68.65-85.47-156.48-157.97-243.41-224.65-86.04-65.79-178.77-123.97-279.97-163.8-224.69-87.71-448.04-38.93-663.36 51.92-228.26 96.21-448.93 209.88-670.053 320.42-452.496 226-914.8003 449.32-1417.227 536.14-126.164 21.92-254.557 34.46-382.505 35.8-114.575 1.34-238.955.45-349.955-30.88-49.04-13.87-99.42-37.15-127.95-81.45-37-57.28-24.08-128.89-8.03-190.65 27.2-102.93 78.47-198.7 144.89-281.49 137.31-171.4 332.129-285.07 541.214-344.59 119.477-34.01 243.412-51.47 367.347-58.18 119.477-6.26 246.532-10.74 365.1171 8.95 115.9104 18.8 196.1559 91.3 235.8329 201.39 40.123 110.54 32.99 227.79 28.978 343.25-5.795 173.19 8.47 420.67 202.843 491.38 100.753 36.7 221.122-1.79 319.645-30.43 102.537-29.99 202.398-69.37 297.803-117.25 98.52-49.68 192.14-108.3 279.52-175.88 74.9-57.28 161.83-121.73 212.21-203.18 35.66-57.73 56.17-136.94-7.14-182.59-3.56-2.68-9.81-2.23-13.37 0-183.23 112.33-284.87 314.17-323.21 520.92-35.67 192.88-34.78 430.519 94.06 591.18 103.43 128.887 306.27 163.346 434.22 46.99 61.08-55.493 80.25-140.97 52.16-218.391-33.44-91.739-119.03-156.629-212.21-179.009-122.59-29.54-251.88 3.58-367.79 43.86-107.44 37.59-210.42 86.816-308.943 143.651-205.518 118.594-391.867 266.724-581.781 408.59-193.927 144.55-393.2043 284.625-617 379.052-250.991 106.5109-524.272 160.2138-797.106 156.6337-123.04-1.7902-263.47-4.0278-376.26-59.0732-121.26-59.5207-158.71-185.7225-127.95-311.0295 29.42-119.936 102.53-221.524 184.56-310.581 81.59-88.61 174.76-166.479 274.62-233.607 199.279-133.366 423.075-225.106 652.221-292.686 57.509-17 115.464-32.22 173.42-46.09 62.413-15.22 131.513-37.59 196.156-33.56 145.7792 9.39 168.07 184.82 193.0353 298.047 111.4517 499.884 154.6957 1022.5915 366.4547 1494.281 26.303 59.074 55.281 116.804 87.379 172.745 21.845 38.487 48.593 80.106 95.849 87.714 103.428 15.664 166.287-115.908 197.048-192.882 40.568-102.036 74.896-238.083 44.581-347.279-26.749-95.322-115.911-130.677-207.302-122.174-114.127 10.741-222.013 67.129-325.44 112.329-129.285 56.387-257.2325 116.803-383.8424 179.009-251.4366 123.517-499.3066 254.194-751.1886 377.71-502.431 248.38-1032.051 470.8-1594.661 530.32-135.08 14.32-270.6 18.79-406.13 12.08 4.46 4.47 8.92 8.95 13.37 13.42 3.57-174.53 136.42-316.84 294.24-374.573 175.2-63.995 367.79-15.663 524.27 75.183 168.96 98.46 299.14 246.59 419.51 398.74 117.24 148.58 230.93 299.4 361.55 437.24 481.917 507.04 1114.0743 869.09 1795.271 1023.93 156.925 35.8 335.248 69.37 472.559-38.04 99.86-78.32 144.89-204.96 161.38-327.14 19.17-146.34 3.12-301.63-41.9-442.15-49.94-155.74-157.38-265.38-324.999-277.91-180.999-13.43-367.347 58.17-539.429 103.82-214.435 56.84-428.423 113.67-642.857 170.51-211.76 55.94-423.074 112.33-634.833 168.27-104.322 27.74-209.082 55.49-313.402 83.24-103.88 27.74-208.19 62.2-313.85 81.45-101.65 18.34-183.67-29.09-187.69-136.5-3.12-77.42 24.52-153.95 57.96-222.42 80.69-165.14 171.63-324.9 271.94-478.85 205.97-316.85 451.161-608.184 728.454-864.616 67.317-62.205 136.418-122.621 207.302-180.799-6.242 0-12.483 0-18.725 0 216.218 168.269 238.063 469.005 281.752 719.175 28.086 161.1 63.305 321.32 104.319 479.74 20.953 80.56 43.6895 160.66 68.2088 240.32 20.0615 65.79 37.4482 136.05 68.65474 197.36 20.95316 40.72 53.05156 81.9 101.19876 88.61 46.8097 6.71 85.5947-21.93 113.2357-57.28 40.568-52.81 65.98-118.6 94.066-178.57 33.435-71.15 65.533-143.2 95.849-215.7 119.031-284.18 214.434-578.65 284.871-878.492 79.354-339.67 126.61-686.949 141.322-1036.0174.446-13.4258-18.278-17.9009-24.965-6.7129-157.371 270.7523-230.483 587.5993-204.181 899.9703 21.845 261.802 125.718 540.162 395.433 628.772 134.635 44.3 281.755 38.49 419.955 15.21 143.99-24.16 285.31-66.68 418.17-127.09 262.58-119.49 489.5-318.19 609.42-584.915 56.62-125.755 89.16-263.145 87.38-401.429-1.34-119.489-22.74-263.5918-117.25-347.27876-108.33-96.21754-251.88-39.38204-353.08 37.59206-107 81.4487-196.6 185.2747-266.6 299.8407-334.8 546.874-211.31 1251.72-28.53 1829.48 182.34 575.51 483.26 1112.99 879.58 1567.67 48.6 55.94 98.97 110.54 150.69 163.8 12.48 12.53 29.42-5.82 18.72-18.8-534.08-679.79-1103.38-1331.83-1706.11-1951.65-598.723-615.35-1229.989-1200.259-1889.786-1749.818-316.974-264.0393-648.204-511.073-960.724-780.034-148-127.545-290.66-261.802-419.95-408.588-66.87-76.08-130.17-155.74-188.13-238.98-25.86-37.59-51.27-75.63-74.89-114.57-12.04-19.69-23.63-39.38-34.78-59.07-16.94-29.53-16.49-42.96-1.78-72.94 81.14-162.9 307.16-193.34 467.21-209.45 212.2-21.03 426.19-9.84 636.17 27.3 423.515 74.74 824.298 246.59 1201.898 448.42 736.477 392.928 1404.302 921.901 2200.072 1196.6805 189.02 65.3384 383.39 115.0135 581.78 141.4175 98.97 13.426 198.38 21.033 298.24 22.376 41.46.448 61.97 9.398 82.48-28.1939 20.06-36.697 31.21-77.8691 34.33-119.9362 13.37-166.4789-86.94-324.4549-210.43-427.3849-122.15-101.588-275.06-159.319-430.65-182.59-379.83-56.388-735.14 98.008-1064.14 272.542-91.84 48.78-182.79 98.903-274.62 147.235-86.49 45.648-221.124 144.1029-319.202 82.792-73.113-45.647-90.054-149.473-99.861-228.237-14.266-115.909-23.182-232.712-30.761-349.069-29.869-463.632-16.049-929.952 41.46-1390.902 14.712-119.94 32.99-239.87 53.943-358.92 16.941-96.21 28.532-200.04 68.655-290.44 40.568-90.4 121.26-149.02 222.459-112.77 97.187 34.9 170.297 123.96 238.507 197.8 486.82 528.53 816.28 1206.53 1399.84 1642.41 152.91 114.122 329.45 227.345 521.6 252.854 156.92 21.034 337.92-32.669 421.73-177.219 48.15-83.235 49.93-181.245 39.68-274.335-11.14-102.03-31.65-203.62-54.39-303.87-45.92-201.38-109.67-398.29-189.91-588.04-81.14-191.09-179.22-374.58-292.9-548.22-3.12-4.92-9.36-8.05-15.16-6.26-375.37 132.91-508.22 543.74-696.35 855.66-105.66 175.43-247.43 352.65-439.12 436.78-201.95 89.06-418.62 26.86-567.96-129.78-191.7-201.38-234.05-487.35-271.5-750.94-6.69 4.92-12.93 10.29-19.62 15.21 337.48 148.13 477.91 519.58 616.56 834.64 36.55 83.23 74 166.03 115.91 246.58 52.6 101.14 112.79 197.807 166.28 298.947 98.97 187.512 176.54 405.904 112.35 618.478-61.08 201.833-245.2 280.5972-419.51 364.284-78.91 38.04-157.82 79.659-222.01 140.075-70.44 66.234-117.7 152.158-156.04 239.873-78.9 181.247-132.4 395.163-309.832 507.493-100.307 63.55-205.964 55.49-311.175 7.61-89.162-40.28-171.637-86.823-267.931-109.199-352.1899-81.002-769.467 85.029-919.705 427.829-86.933 198.7-38.34 418.89 53.497 606.85 83.812 171.4 206.41 322.66 350.852 446.62 320.537 274.78 734.694 403.67 1151.974 417.99 222.46 7.61 449.82-13.42 666.93-62.65 172.97-39.38 346.39-102.93 487.71-213.47 139.99-109.2 231.82-264.93 242.52-444.39 13.38-218.39-79.8-429.62-180.55-617.58-106.55-198.7-231.82-398.3-263.92-625.643-29.42-206.756 36.56-405.008 134.19-584.913 94.96-175.4294 214.88-335.1955 315.63-507.045 111.01-189.302 178.33-392.478 234.5-604.157 100.31-379.952 216.66-863.722 622.35-1028.412 228.7-93.08 479.69-30.88 703.49 45.2 197.49 67.13 396.32 139.63 583.11 233.61 176.54 88.61 344.17 201.83 468.55 357.57 16.49 20.59 41.91 41.17 31.21 66.68-7.58 17.9-21.85 34.91-32.99 50.57-29.43 41.18-62.86 79.21-99.87 114.12-69.1 65.787-148.9 119.043-233.15 162.005-174.76 89.505-369.58 136.942-563.51 159.318-222.9 25.957-448.48 24.614-671.83.448-457.4-49.675-901.43-196.016-1315.58-393.821-205.52-98.01-404.35-209.89-596.94-331.17-186.35-117.7-367.35-243.45-557.26-355.33-184.123-108.3-378.05-204.07-585.351-260.01-173.42-46.99-421.736061-81-518.4768 115.01-31.6522 64-28.9772 140.08 12.9287 198.7 34.773 48.78 90.05325 76.08 145.3338 95.77 135.5263 48.33 320.5373 57.28 396.3243 200.04 82.475 155.3 13.374 347.28 87.825 505.706 14.265 30.432 28.086 59.969 62.413 66.234 36.556 6.713 74.45 2.685 110.56-4.923 78.463-16.111 164.504-63.101 246.087-48.78 110.116 19.244 101.646 145.893 129.726 227.79 22.3 64.443 85.6 134.704 159.16 106.063 11.14-4.475 13.82-22.824 0-25.956-335.25-76.08-684.765-57.731-1026.254-55.494-360.66 2.686-720.874 6.266-1081.533 11.189-360.663 4.922-720.873 10.74-1081.533 17.453-130.18 2.685-267.04-4.923-392.31 37.592-47.26 15.663-93.62 38.935-128.4 75.632-21.39 22.376-62.41 77.869-51.26 110.985 7.57 22.377 45.91 49.228 62.86 65.786 26.74 25.957 54.38 50.571 82.92 74.737 50.82 42.515 104.76 82.344 160.49 118.594 116.8 76.5263 242.07 138.73213 371.36 190.6447 275.06 110.5383 566.62 172.7443 858.179 218.3913 690.558 108.301 1392.708 118.594 2089.511 81.002 353.08-19.243 705.71-50.57 1057.46-87.715 136.41-14.32 272.83-34.011 410.14-28.641 116.36 4.475 241.18 24.166 337.92 93.085 47.71 34.012 83.37 79.212 107.44 132.02.9-5.371 1.34-10.741 2.23-16.112-140.87 113.224-309.83 179.01-483.25 223.315-183.68 46.99-372.7 76.527-560.83 100.693-391.87 50.123-788.64 62.206-1182.734 37.144-196.602-12.53-390.529-39.382-585.793-65.338-65.534-8.503-137.7552-8.056-186.3485 44.305-36.11032 38.487-42.35178 92.637-37.89377 143.207 6.24146 68.471 27.64017 134.261 43.68947 200.491 20.0613 84.13 36.5561 186.17-66.8716 217.05-78.0166 23.72-169.8536 8.95-249.6526 6.26-102.537-3.13-204.627-6.26-307.163-9.39-456.513-14.32-913.463-28.2-1369.973-42.52-12.93-.45-18.72 18.8-6.69 25.06 439.13 230.93 878.25 461.4 1317.37 692.32 201.506 106.07 401.228 221.97 614.3254 303.42 193.9266 73.85 408.8076 113.23 610.3126 45.65 184.565-61.76 333.911-196.46 465.422-336.09 137.76-145.89 261.69-305.21 370.47-474.37 218.89-341.02 375.37-723.651 455.17-1121.499 91.84-456.4746 85.6-924.137 95.4-1387.772 4.91-233.609 14.27-468.109 42.8-700.379 14.71-121.27 34.78-242.11 62.42-361.15 22.73-98 52.6-196.91 106.99-282.38 54.83-85.48 135.08-150.82 235.83-170.96 93.62-18.79 188.58 7.61 247.43 85.48 83.81 111.43 87.38 279.25 200.17 369.65 138.2 110.99 331.68.9 448.93-88.61 135.97-103.82 268.37-260.9 443.58-294.91 42.35-8.06 88.71-8.51 128.83 8.05 58.41 24.17 77.58 77.87 78.47 137.39 1.33 117.7-13.38 237.64-24.52 354.89-10.7 109.64-12.04 235.39-68.66 332.95-56.61 98.01-168.07 136.05-267.48 174.99-111.45 43.85-223.35 87.71-334.81 131.57-103.87 40.72-209.53 90.4-320.98 106.96-121.7 18.34-237.17-20.59-345.5-73.4-95.85-46.99-188.13-101.59-277.29-159.76-360.66-235.85-669.61-540.61-1019.12-791.67-335.698-240.77-730.685-444.39-1152.42-447.97-176.9866-1.35-382.95 20.58-491.282 179.01-91.837 134.25-97.187 311.02-110.115 467.66-18.278 218.84-82.029 425.15-123.043 639.96-34.773 184.38-37.448 368.309 25.857 546.87 110.56 312.372 379.829 567.908 699.474 654.28 176.541 47.8853 353.527 26.852 531.851 1.343 189.914-27.299 407.468-65.786 584.458 32.6692 183.67 102.48295 252.77 321.3218 240.29 521.3648-7.58 119.042-40.12 234.95-79.36 346.831-29.86 85.925-98.52 195.121-47.25 285.072 19.61 34.01 49.48 61.76 76.23 89.51 37.45 38.93 74.9 77.42 114.13 114.56 68.65 64.45 142.21 124.86 224.69 170.96 179.21 99.79 369.57 96.21 559.04 28.19 99.86-35.8 195.27-82.34 292.45-124.41 103.43-44.75 208.2-85.48 314.74-122.18 205.52-71.15 416.39-127.09 629.49-168.26 430.65-82.797 873.34-104.725 1309.78-63.553 215.33 20.143 428.87 55.943 639.3 106.513 16.94 4.03 24.07-21.93 7.13-25.96-843.92-203.175-1742.22-162.45-2564.74 115.46-102.98 34.91-204.63 73.4-304.94 115.46-101.2 42.52-199.72 91.3-301.81 130.23-103.87 39.38-214.43 68.92-326.33 60.87-102.54-7.61-199.28-47.44-284.87-102.93-85.6-55.05-160.94-124.42-232.72-196.02-31.2-31.33-62.41-63.1-92.28-95.77-18.28-20.14-36.55-40.72-45.47-67.13-13.82-40.276-.89-80.553 12.93-118.592 72.66-199.596 150.68-405.904 121.7-622.506-23.62-175.877-116.8-341.9078-282.19-417.092-166.29-75.631-356.651-49.227-530.963-24.614-191.252 26.852-379.829 55.046-569.298 1.343-169.8534-48.333-324.549-145.893-446.701-273.437-122.152-127.545-212.651-286.415-252.328-459.16-48.593-210.332-2.675-420.672 47.256-626.082 25.857-105.62 52.16-210.79 66.425-318.64 12.037-87.71 16.05-176.32 24.966-264.04 19.169-180.35 66.871-377.26 255.003-447.97 100.7527-37.59 215.3254-43.86 322.32-42.07 107.44 2.24 214.434 17.9 318.753 43.86 209.977 52.81 407.916 146.34 592.477 258.67 366.91 222.87 676.74 524.94 1018.68 782.27 169.41 127.54 349.51 251.06 544.78 335.64 93.17 40.28 191.69 65.79 293.78 53.71 107.44-12.98 208.64-58.18 308.51-97.56 111.45-43.86 223.35-87.72 334.8-131.58 86.48-34.01 181-63.99 252.33-125.75 74.89-64.44 101.64-158.87 115.01-253.3 16.05-112.78 24.97-226.89 32.99-340.12 4.02-55.94 8.92-111.88 9.81-167.82.89-43.86-3.56-88.61-29.42-125.31-40.12-57.28-115.47-71.6-181-64.89-168.07 17.01-302.7 156.19-426.64 258.67-123.93 102.49-363.78 273.89-503.32 104.72-92.28-111.88-91.39-279.7-205.07-378.15-120.37-103.83-308.5-60.87-415.49 41.62-142.66 136.49-181.89 352.2-214.88 538.37-81.14 458.26-70.44 925.028-82.92 1388.662-12.04 451.9994-53.06 901.761-203.74 1330.488-137.75 392.93-351.3 759-625.47 1071.37-133.297 151.27-282.197 305.66-468.991 388.45-213.097 93.98-444.918 57.73-655.7856-22.82-221.1214-84.13-428.4224-206.31-637.5074-316.4-217.109-114.12-434.216-228.24-651.326-342.36-212.21-111.43-424.41-222.86-636.62-334.3-2.23 8.51-4.45 16.56-6.68 25.07 415.04 12.97 830.54 25.5 1245.587 38.48 198.385 6.27 399 21.48 597.385 17.9 56.6175-.89 122.1514-8.95 162.2742-53.7 44.5811-49.23 33.4355-120.38 20.5071-179.9-24.5193-116.36-129.2844-370.553 71.7757-386.217 43.243-3.58 87.378 5.818 129.73 12.531 49.039 7.608 98.078 14.321 147.117 20.586 101.199 12.978 202.844 23.271 304.934 30.879 396.77 30.432 796.21 22.824 1191.2-22.824 209.98-24.166 420.85-55.493 626.36-106.958 182.79-45.647 360.66-114.566 508.67-233.607 4.91-4.028 4.46-11.188 2.23-16.111-94.96-207.204-344.16-243.006-547.01-238.978-143.55 3.133-286.65 24.614-428.86 39.382-173.42 17.901-346.84 34.012-520.26 47.885-686.997 55.046-1379.338 73.394-2065.884 7.161-315.633-30.432-632.606-75.184-939.766-154.396-274.17-70.7088-543.89-172.7444-777.94-334.748-60.18-41.62-117.25-86.82-171.19-136.495-24.07-22.376-48.59-44.752-70.44-69.366-12.92-14.321-13.82-17.006-7.57-35.354 5.79-16.111 13.82-31.327 24.07-45.2 69.55-93.085 210.42-111.881 317.86-117.251 170.75-8.503 342.83-7.161 513.57-10.294 174.76-3.132 349.52-5.817 524.27-8.502 352.194-4.923 704.384-9.398 1056.5727-12.083 174.7573-1.343 349.0683-2.686 523.8263-3.581 166.732-.895 333.465-1.342 499.752 14.321 88.269 8.503 175.649 21.929 262.139 41.62 0-8.503 0-17.453 0-25.956-81.59 31.326-125.28-72.947-138.2-135.153-11.6-55.045-19.62-115.908-60.63-157.976-71.334-73.841-177.882-36.696-262.14-12.083-51.268 15.216-116.802 38.935-170.745 24.614-51.268-13.873-68.209-110.986-75.342-156.186-17.832-114.57-1.783-234.05-35.665-345.94-62.859-206.75-283.534-209.88-452.496-276.57-105.2109-41.61-182.336-138.28-122.5977-253.74 79.80009-153.95 271.4977-146.79 416.3857-114.57 284.872 63.1 543.888 205.86 788.64 360.26 248.76 156.63 490.39 323.56 748.51 464.98 516.69 282.384 1084.21 491.378 1673.57 541.053 275.06 23.271 559.49 14.768 828.76-48.78 232.71-55.046 466.76-157.529 628.14-339.673 37.9-42.96 71.33-89.95 99.42-139.63 2.23-4.02 2.67-9.84 0-13.42-145.34-212.13-362-353.99-591.59-460.06-117.25-54.59-238.06-100.69-359.32-144.99-146.23-53.71-293.79-108.3-447.6-134.71-143.99-24.61-293.34-22.82-430.65 32.22-107.44 43.41-201.06 115.02-277.74 201.39-180.1 202.73-263.02 463.63-330.79 721.408-39.23 148.13-75.34 297.603-129.28 441.706-49.49 132.914-117.69 255.536-193.04 375.025-135.97 215.2587-297.35 425.147-369.13 673.523-35.22 121.726-43.69 248.376-21.4 373.235 25.42 142.313 86.94 275.673 153.36 402.773 138.2 264.48 330.35 550.9 279.08 865.06-43.24 262.7-268.82 426.04-502.87 512.42-268.38 99.35-569.3 130.23-853.28 121.28-563.059-17.46-1142.165-260.02-1439.52-762.58-75.342-127.55-135.08-271.65-143.551-421.57-9.362-161.11 53.052-308.79 160.046-426.94 172.528-189.303 439.5676-280.15 691.45-249.718 62.413 7.607 124.381 22.823 183.227 46.095 65.98 25.956 127.056 63.103 193.036 89.503 115.464 46.1 232.713 32.22 332.132-43.41 213.98-162.897 228.7-448.865 377.15-656.516 149.79-209.441 432.44-226.894 606.3-405.9039 179.22-184.8271 149.35-471.6901 56.62-690.5291-59.29-139.18-140.88-266.721-212.65-399.191-58.4-108.3-107.89-221.08-157.37-333.85-92.29-210.34-185.01-430.97-342.38-601.92-73.56-79.66-160.5-144.55-259.91-187.96-11.15-4.93-21.4 3.13-19.62 15.21 34.33 238.98 71.33 493.17 218.9 691.87 119.03 160.67 304.04 273.44 508.66 247.49 196.61-24.62 357.54-163.35 477.02-312.82 131.07-163.8 214.88-355.34 317.86-537.03 114.13-201.39 258.57-402.77 485.04-482.88-4.9-2.24-10.25-4.03-15.16-6.27 234.95 358.92 402.57 760.35 491.73 1180.57 41.91 198.26 112.35 466.322-84.7 604.159-181.89 127.097-410.15 62.654-588.47-35.354-650.44-356.675-1009.76-1052.575-1467.16-1607.505-57.95-70.71-118.14-139.63-180.55-205.86-61.52-65.34-126.16-136.05-210.42-171.4-69.103-28.64-146.674-22.38-203.737 29.09-53.498 48.78-79.354 122.62-96.295 191.54-52.606 214.81-79.8 439.46-103.874 659.2-25.857 232.26-40.569 465.42-44.135 699.03-3.567 233.61 3.566 467.216 21.845 700.376 8.024 102.035 13.374 206.756 32.99 307.448 12.928 66.234 37.448 140.523 94.957 181.695 69.546 49.6753 152.467 23.2712 222.905-9.845 98.074-46.543 193.034-99.798 288.434-151.263 189.03-102.036 379.83-204.966 584.91-272.543 323.21-106.51 725.77-113.223 999.95 119.042 135.52 115.014 261.69 327.1395 170.29 505.254-13.82 27.299-34.32 21.034-62.41 20.586-24.07-.447-47.7-.895-71.77-1.7899-52.16-2.2375-104.32-6.2651-156.04-11.6355-102.09-10.7407-203.73-28.194-303.59-51.0178-825.64-186.6178-1518.429-704.8498-2237.073-1125.0768-368.685-215.7-753.418-413.06-1163.567-536.13-197.49-59.07-400.33-100.25-606.3-115.02-191.69-13.42-395.87-10.74-583.11 37.15-72.23 18.35-144.45 46.54-203.74 92.64-25.86 20.14-49.04 43.41-67.32 70.71-13.37 20.13-39.67 62.2-35.66 87.71 3.57 20.14 24.96 45.65 35.22 63.1 11.59 19.69 23.63 39.38 35.66 58.63 26.75 42.51 54.84 84.13 84.26 124.86 53.94 74.73 111.9 146.78 172.97 216.15 263.48 298.051 579.11 542.846 889.39 788.537 679.417 534.343 1327.6235 1103.593 1944.178 1706.853 613.882 601.03 1197.002 1233.83 1744.892 1896.16 134.64 162.45 267.04 327.14 397.67 493.17 6.24-6.26 12.48-12.53 18.72-18.79-391.42-405.91-702.59-887.44-912.57-1411.49-104.32-260.46-184.12-531.21-236.28-807.34-59.29-314.61-81.58-645.33 2.23-957.25 68.65-255.537 212.2-511.52 435.11-662.7829 64.64-43.85741 144.44-79.6594 223.35-58.626 66.43 17.90116 111.01 76.5269 136.86 136.9429 53.05 123.516 50.38 273.884 24.97 403.666-53.94 277.465-229.59 515.55-460.97 672.63-225.58 153.05-510.9 249.72-783.73 255.98-139.09 3.13-284.873-24.16-394.542-115.46-102.982-85.48-161.829-211.68-193.481-340.118-69.101-281.492-33.436-592.073 71.775-859.692 28.086-71.1569 61.967-139.62782 100.307-205.8615-8.47-2.2375-16.495-4.4751-24.965-6.7129-24.965 592.5214-145.334 1180.1244-355.756 1734.6044-54.389 143.65-115.465 285.07-181.89 423.36-26.303 55.04-53.051 134.25-107.44 168.71-70.438 44.75-122.1519-28.64-146.2256-86.82-57.5093-139.62-94.0657-292.68-131.5134-438.57-38.786-150.82-71.33-303.42-97.633-456.48-43.689-252.4-69.1-553.582-287.1-723.194-6.242-4.922-12.929-4.922-18.725 0-288.438 236.74-547.011 507.944-770.361 807.334-112.79 150.81-215.77 308.79-309.39 472.58-46.81 81.9-90.94 165.14-131.96 249.72-29.87 61.31-53.5 126.2-60.18 194.68-5.35 56.83 2.67 119.93 43.24 162.89 53.94 57.29 135.53 51.47 205.52 34.91 213.99-50.57 426.19-112.78 638.844-169.16 425.748-113.23 851.4955-226 1277.243-339.23 176.095-46.54 385.179-131.12 568.407-79.21 185.456 52.81 240.736 258.22 262.586 428.28 18.27 143.21 13.37 302.53-52.16 434.1-31.21 62.65-77.13 116.8-138.65 150.82-91.392 50.57-197.94 46.09-297.801 29.09-354.864-61.32-703.0414-195.12-1018.228-367.42-316.525-172.75-606.747-393.38-857.291-652.94-131.07-136.05-245.64-284.18-361.55-432.75-115.47-147.69-238.51-293.13-396.33-397.41-142.21-93.976-315.18-156.182-487.27-132.91-142.65 19.243-279.52 102.48-357.09 224.66-38.78 60.41-59.74 129.33-61.07 201.38 0 7.61 6.24 12.98 13.37 13.43 1035.61 48.33 1945.957-527.633 2843.8165-960.836 113.2355-54.598 226.9165-107.405 342.3815-157.08 100.307-42.963 213.543-102.931 326.332-93.98 154.25 12.53 149.346 180.352 127.056 296.708-10.699 55.94-27.64 110.986-50.822 162.899-24.966 56.388-61.968 130.676-127.056 148.13-70.438 18.796-104.765-67.576-131.068-116.804-28.978-54.598-55.726-110.985-80.246-167.821-46.364-108.748-83.812-220.629-115.91-334.3-64.197-227.79-105.657-460.95-148.009-693.662-21.844-119.042-43.689-238.531-68.654-357.124-20.0616-95.771-33.4361-206.31-85.5958-291.34-55.7261-91.74-148.9002-98.9-246.0862-79.21-104.32 21.03-208.193 48.78-309.838 79.66-207.301 63.1-410.59 147.23-593.821 264.486-168.96 107.853-337.92 249.718-439.56 425.595-90.06 155.291-125.72 378.605 53.49 485.563 85.15 51.0178 189.03 61.3108 285.77 68.9187 123.04 9.3982 247.42 7.1604 370.018-6.2654 233.604-25.9563 461.858-92.1897 672.726-197.3583 193.92695-96.665 369.576-224.209 542.55-353.991 172.082-129.334 341.936-262.249 527.392-371.892 95.849-56.836 195.714-106.958 300.474-145.446 114.13-42.07 241.63-79.66 363.78-55.94 110.12 21.48 223.8 111.434 220.23 234.055-2.67 87.267-71.33 148.578-150.24 171.849-84.25 25.062-180.55 12.978-249.65-42.962-79.8-63.996-123.04-161.108-143.1-259.116-42.36-204.966-6.25-441.256 92.28-625.196 22.29-41.61 48.15-81.44 78.46-117.25 30.32-36.25 76.68-92.19 121.71-109.64 16.49-6.26 17.38-8.05 28.53 9.85 6.69 10.74 7.58 25.95 7.13 38.48-1.34 26.41-12.48 52.36-24.96 74.74-28.09 50.12-73.12 88.61-115.47 126.2-173.42 154.4-378.49 272.99-597.828 346.83-49.931 16.56-100.753 31.33-152.467 43.41-67.317 15.67-140.43 32.67-208.193 11.19-104.765-33.12-162.275-143.21-183.673-244.35-45.473-218.84 49.038-462.74-83.367-662.78-52.605-80.11-131.9594-121.73-225.5793-135.15-117.2477-16.56-240.2917-14.32-358.4307-7.61-416.832 22.38-872.452 194.22-1046.312 607.74-35.67 84.58-74.45 199.14-32.99 288.65 35.66 76.97 121.7 109.2 199.72 123.52 233.6 43.85 484.595 23.71 717.308-17.91 509.1137-91.29 977.213-320.87 1435.951-550.45 232.271-115.91 464.091-239.87 707.051-332.51 117.25-44.75 240.74-77.87 367.35-70.71 122.6 6.71 239.4 51.91 344.61 113.67 99.86 58.63 191.25 132.02 276.85 210.34 87.82 80.11 171.63 174.98 193.48 296.26 41.46 233.61-135.08 439.92-334.8 528.97-209.53 93.983-458.3 103.381-683.88 82.795-230.48-20.586-457.84-83.685-666.48-183.935-406.133-195.12-729.344-531.66-914.801-942.93-90.4991-200.49-146.2251-415.75-164.50346-635.04-3.12061-17.45-29.86934-17.45-28.53174-.44z" fill="#e6007a"/></g><path d="m579.661 1151h171.166l54.571-197.882c7.525-27.285 45.892-27.268 53.393.023l54.382 197.859h170.837l130.99-506h-160.39l-40.96 200.811c-5.95 29.161-46.969 29.967-54.04 1.061l-49.377-201.872h-156.466l-48.102 203.126c-6.868 29.002-47.975 28.44-54.062-.739l-14.445-69.249c-16.185-77.591-84.056-133.138-162.678-133.138h-25.48z" fill="#fff"/></svg>