<svg width="388" height="238" viewBox="0 0 388 238" fill="none" xmlns="http://www.w3.org/2000/svg">
<path d="M79.4993 46.539C142.716 -15.355 245.209 -15.355 308.426 46.539L316.034 53.988C319.195 57.0827 319.195 62.1002 316.034 65.1949L290.008 90.6766C288.427 92.2239 285.865 92.2239 284.285 90.6766L273.815 80.4258C229.714 37.247 158.211 37.247 114.11 80.4258L102.898 91.4035C101.317 92.9509 98.7551 92.9509 97.1747 91.4035L71.1486 65.9219C67.9878 62.8272 67.9878 57.8096 71.1486 54.715L79.4993 46.539ZM362.25 99.2378L385.413 121.917C388.574 125.011 388.574 130.029 385.413 133.123L280.969 235.385C277.808 238.48 272.683 238.48 269.522 235.385C269.522 235.385 269.522 235.385 269.522 235.385L195.394 162.807C194.604 162.033 193.322 162.033 192.532 162.807C192.532 162.807 192.532 162.807 192.532 162.807L118.405 235.385C115.244 238.48 110.12 238.48 106.959 235.385C106.959 235.385 106.959 235.385 106.959 235.385L2.51129 133.122C-0.649517 130.027 -0.649517 125.01 2.51129 121.915L25.6746 99.2365C28.8354 96.1418 33.9601 96.1418 37.1209 99.2365L111.25 171.816C112.041 172.589 113.322 172.589 114.112 171.816C114.112 171.816 114.112 171.815 114.112 171.815L188.238 99.2365C191.399 96.1417 196.523 96.1416 199.684 99.2362C199.684 99.2362 199.684 99.2363 199.684 99.2363L273.814 171.815C274.604 172.589 275.885 172.589 276.675 171.815L350.804 99.2378C353.964 96.1431 359.089 96.1431 362.25 99.2378Z" fill="white"/>
</svg>
