<svg fill="none" height="512" viewBox="0 0 512 512" width="512" xmlns="http://www.w3.org/2000/svg"><g stroke="#fff" stroke-linejoin="round" stroke-width="32"><path d="m336 64h32c12.73 0 24.939 5.0571 33.941 14.0589 9.002 9.0017 14.059 21.2107 14.059 33.9411v320c0 12.73-5.057 24.939-14.059 33.941s-21.211 14.059-33.941 14.059h-224c-12.73 0-24.939-5.057-33.941-14.059s-14.059-21.211-14.059-33.941v-320c0-12.7304 5.057-24.9394 14.059-33.9411 9.002-9.0018 21.211-14.0589 33.941-14.0589h32"/><path d="m309.87 32h-107.74c-14.431 0-26.13 11.6988-26.13 26.13v11.74c0 14.4312 11.699 26.13 26.13 26.13h107.74c14.431 0 26.13-11.6988 26.13-26.13v-11.74c0-14.4312-11.699-26.13-26.13-26.13z"/></g></svg>