<svg fill="none" height="512" viewBox="0 0 512 512" width="512" xmlns="http://www.w3.org/2000/svg" xmlns:xlink="http://www.w3.org/1999/xlink"><linearGradient id="a"><stop offset="0" stop-color="#a562d5"/><stop offset="1" stop-color="#306feb"/></linearGradient><linearGradient id="b" gradientUnits="userSpaceOnUse" x1="160" x2="380.191" xlink:href="#a" y1="144.018" y2="421.745"/><linearGradient id="c" gradientUnits="userSpaceOnUse" x1="64" x2="96.3014" xlink:href="#a" y1="128.003" y2="159.69"/><linearGradient id="d" gradientUnits="userSpaceOnUse" x1="64" x2="96.3014" xlink:href="#a" y1="240.003" y2="271.69"/><linearGradient id="e" gradientUnits="userSpaceOnUse" x1="64" x2="96.3014" xlink:href="#a" y1="352.003" y2="383.69"/><g stroke-linecap="round" stroke-linejoin="round"><path d="m160 368h288m-288-224h288zm0 112h288z" stroke="url(#b)" stroke-width="48"/><g stroke-width="32"><path d="m80 160c8.8366 0 16-7.163 16-16s-7.1634-16-16-16-16 7.163-16 16 7.1634 16 16 16z" stroke="url(#c)"/><path d="m80 272c8.8366 0 16-7.163 16-16s-7.1634-16-16-16-16 7.163-16 16 7.1634 16 16 16z" stroke="url(#d)"/><path d="m80 384c8.8366 0 16-7.163 16-16s-7.1634-16-16-16-16 7.163-16 16 7.1634 16 16 16z" stroke="url(#e)"/></g></g></svg>