<svg fill="none" height="512" viewBox="0 0 512 512" width="512" xmlns="http://www.w3.org/2000/svg"><path d="m112 112 20 320c.95 18.49 14.4 32 32 32h184c17.67 0 30.87-13.51 32-32l20-320" stroke="#f21361" stroke-linecap="round" stroke-linejoin="round" stroke-width="32"/><path d="m80 112h352z" fill="#f21361"/><g stroke="#f21361" stroke-linecap="round" stroke-width="32"><path d="m80 112h352" stroke-miterlimit="10"/><path d="m328 176-8 224m-128-288v-39.9999c-.009-3.1543.605-6.2793 1.808-9.1953s2.97-5.5654 5.201-7.7959c2.23-2.2304 4.88-3.9979 7.796-5.2007 2.916-1.2029 6.041-1.8173 9.195-1.8081h80c3.154-.0092 6.279.6052 9.195 1.8081 2.916 1.2028 5.566 2.9703 7.796 5.2007 2.231 2.2305 3.998 4.8799 5.201 7.7959s1.817 6.041 1.808 9.1953v39.9999zm64 64v224zm-72 0 8 224z" stroke-linejoin="round"/></g></svg>