<svg fill="none" height="512" viewBox="0 0 512 512" width="512" xmlns="http://www.w3.org/2000/svg"><g fill="#8b8b8b"><path d="m408 336h-64c-4.418 0-8 3.582-8 8v64c0 4.418 3.582 8 8 8h64c4.418 0 8-3.582 8-8v-64c0-4.418-3.582-8-8-8z"/><path d="m328 272h-48c-4.418 0-8 3.582-8 8v48c0 4.418 3.582 8 8 8h48c4.418 0 8-3.582 8-8v-48c0-4.418-3.582-8-8-8z"/><path d="m472 416h-48c-4.418 0-8 3.582-8 8v48c0 4.418 3.582 8 8 8h48c4.418 0 8-3.582 8-8v-48c0-4.418-3.582-8-8-8z"/><path d="m472 272h-32c-4.418 0-8 3.582-8 8v32c0 4.418 3.582 8 8 8h32c4.418 0 8-3.582 8-8v-32c0-4.418-3.582-8-8-8z"/><path d="m312 432h-32c-4.418 0-8 3.582-8 8v32c0 4.418 3.582 8 8 8h32c4.418 0 8-3.582 8-8v-32c0-4.418-3.582-8-8-8z"/><path d="m408 96h-64c-4.418 0-8 3.5817-8 8v64c0 4.418 3.582 8 8 8h64c4.418 0 8-3.582 8-8v-64c0-4.4183-3.582-8-8-8z"/></g><path d="m448 48h-144c-8.837 0-16 7.1634-16 16v144c0 8.837 7.163 16 16 16h144c8.837 0 16-7.163 16-16v-144c0-8.8366-7.163-16-16-16z" stroke="#8b8b8b" stroke-linecap="round" stroke-linejoin="round" stroke-width="32"/><path d="m168 96h-64c-4.4183 0-8 3.5817-8 8v64c0 4.418 3.5817 8 8 8h64c4.418 0 8-3.582 8-8v-64c0-4.4183-3.582-8-8-8z" fill="#8b8b8b"/><path d="m208 48h-144c-8.8366 0-16 7.1634-16 16v144c0 8.837 7.1634 16 16 16h144c8.837 0 16-7.163 16-16v-144c0-8.8366-7.163-16-16-16z" stroke="#8b8b8b" stroke-linecap="round" stroke-linejoin="round" stroke-width="32"/><path d="m168 336h-64c-4.4183 0-8 3.582-8 8v64c0 4.418 3.5817 8 8 8h64c4.418 0 8-3.582 8-8v-64c0-4.418-3.582-8-8-8z" fill="#8b8b8b"/><path d="m208 288h-144c-8.8366 0-16 7.163-16 16v144c0 8.837 7.1634 16 16 16h144c8.837 0 16-7.163 16-16v-144c0-8.837-7.163-16-16-16z" stroke="#8b8b8b" stroke-linecap="round" stroke-linejoin="round" stroke-width="32"/></svg>