<svg fill="none" height="512" viewBox="0 0 512 512" width="512" xmlns="http://www.w3.org/2000/svg" xmlns:xlink="http://www.w3.org/1999/xlink"><linearGradient id="a" gradientUnits="userSpaceOnUse" x1="48" x2="464" y1="50" y2="462"><stop offset="0" stop-color="#a562d5"/><stop offset="1" stop-color="#306feb"/></linearGradient><path d="m464 249.93c-.135-2.495-1.149-4.863-2.862-6.682s-4.015-2.973-6.498-3.258l-25.64-4.15c-1.153-.189-2.215-.746-3.025-1.588-.811-.841-1.329-1.922-1.475-3.082-.49-3.15-1-6.42-1.7-9.52-.226-1.128-.093-2.297.378-3.346.472-1.049 1.259-1.924 2.252-2.504l22.78-12.65c2.262-1.153 4.021-3.097 4.943-5.463.922-2.365.942-4.987.057-7.367l-3.95-10.9c-.866-2.388-2.583-4.372-4.821-5.573s-4.84-1.535-7.309-.937l-25.55 5c-1.142.204-2.32.042-3.365-.462-1.045-.505-1.904-1.326-2.455-2.348-1.49-2.79-3.11-5.63-4.8-8.42-.614-.994-.901-2.155-.822-3.321.078-1.165.52-2.277 1.262-3.179l17-19.64c1.727-1.854 2.719-4.274 2.791-6.806.072-2.533-.782-5.005-2.401-6.954l-7.42-8.91c-1.614-1.956-3.897-3.243-6.405-3.612-2.509-.37-5.065.205-7.175 1.612l-22.37 13.43c-.992.594-2.148.854-3.299.74-1.151-.113-2.234-.594-3.091-1.37-2.47-2.17-5-4.26-7.37-6.19-.91-.718-1.567-1.707-1.876-2.824-.309-1.116-.255-2.302.156-3.386l9.26-24.4c1.009-2.3281 1.127-4.9456.332-7.3551-.794-2.4096-2.446-4.4433-4.642-5.7149l-10.09-5.89c-2.197-1.2669-4.784-1.6787-7.266-1.1565s-4.684 1.9416-6.184 3.9865l-16.35 20.54c-.588.8928-1.469 1.5528-2.491 1.8667s-2.121.262-3.109-.1467c-.61-.25-5.77-2.36-9.78-3.7-1.1-.3585-2.056-1.0595-2.729-2.0005-.673-.9411-1.027-2.0727-1.011-3.2295l.39-26.07c.139-2.5456-.654-5.0547-2.232-7.0574-1.577-2.0028-3.831-3.3618-6.338-3.8226l-11.45-2c-2.495-.431-5.061.0584-7.222 1.3771-2.161 1.3188-3.77 3.3772-4.528 5.7929l-8.5 24.81c-.386 1.1014-1.115 2.05-2.079 2.7069-.965.6569-2.115.9874-3.281.9431h-9.75c-1.157.0238-2.292-.3182-3.244-.9771s-1.671-1.6013-2.056-2.6929l-8.46-24.67c-.744-2.4333-2.35-4.5119-4.517-5.8464-2.166-1.3346-4.745-1.8336-7.253-1.4036l-11.47 2c-2.491.4572-4.732 1.8029-6.306 3.7873-1.575 1.9844-2.375 4.4726-2.254 7.0027l.4 26.16c.008 1.1741-.363 2.3194-1.059 3.2654-.695.946-1.678 1.6421-2.801 1.9846-2.29.89-7.26 2.79-9.52 3.63-2 .72-4.18-.07-5.94-2.1l-16.26-20c-1.492-2.0573-3.692-3.4906-6.176-4.024-2.485-.5335-5.079-.1296-7.284 1.134l-10.06 5.83c-2.22 1.274-3.889 3.3244-4.687 5.7562-.797 2.4317-.667 5.0727.367 7.4138l9.25 24.34c.404 1.086.457 2.271.152 3.388-.305 1.118-.953 2.112-1.852 2.842-2.43 2-4.92 4-7.4 6.22-.852.77-1.927 1.248-3.07 1.363-1.142.115-2.292-.138-3.28-.723l-22.11-13.69c-2.123-1.381-4.677-1.94-7.183-1.572-2.506.369-4.791 1.639-6.427 3.572l-7.39 8.89c-1.6415 1.936-2.5114 4.409-2.4431 6.946s1.0699 4.959 2.8132 6.804l17.0799 19.62c.758.884 1.211 1.989 1.292 3.151.081 1.161-.214 2.318-.842 3.299-1.71 2.72-3.34 5.58-4.82 8.44-.554 1.029-1.419 1.856-2.472 2.362-1.052.507-2.239.667-3.388.458l-25.51-4.93c-2.4699-.596-5.0727-.262-7.3119.939-2.2391 1.201-3.9578 3.184-4.8281 5.571l-4 10.88c-.8841 2.383-.8634 5.007.0581 7.375.9216 2.369 2.68 4.317 4.9419 5.475l22.78 12.65c1.0245.565 1.8371 1.449 2.3152 2.517.478 1.068.5956 2.262.3348 3.403l-.2399 1.27c-.52 2.79-1 5.43-1.46 8.24-.1591 1.145-.6761 2.21-1.4771 3.044-.8011.833-1.8452 1.392-2.983 1.596l-25.6899 4.15c-2.5124.308-4.8266 1.521-6.5104 3.411s-2.6221 4.328-2.6397 6.859v11.58c-.0146 2.541.9141 4.997 2.6063 6.892 1.6922 1.896 4.0275 3.096 6.5537 3.368l25.68 4.14c1.154.188 2.2161.744 3.0274 1.586.8112.842 1.3279 1.924 1.4726 3.084.49 3.16 1.0001 6.42 1.7001 9.52.2255 1.128.0933 2.297-.3782 3.346s-1.2588 1.924-2.2518 2.504l-22.7701 12.67c-2.2619 1.153-4.0212 3.097-4.9431 5.463-.9219 2.365-.9421 4.987-.0569 7.367l4 10.9c.8683 2.386 2.5851 4.369 4.8226 5.57s4.8389 1.536 7.3074.94l25.55-4.95c1.143-.207 2.322-.047 3.367.458 1.046.505 1.905 1.328 2.453 2.352 1.5 2.8 3.11 5.63 4.8 8.42.617.993.906 2.155.827 3.321s-.522 2.278-1.267 3.179l-17 19.63c-1.7471 1.84-2.7622 4.255-2.8542 6.79-.0921 2.536.7451 5.018 2.3542 6.98l7.41 8.91c1.613 1.958 3.895 3.246 6.405 3.616 2.509.369 5.066-.207 7.175-1.616l22.37-13.43c.992-.594 2.148-.854 3.299-.74 1.151.113 2.234.594 3.091 1.37 2.48 2.17 5 4.26 7.37 6.19.909.719 1.566 1.707 1.877 2.823s.259 2.302-.147 3.387l-9.27 24.4c-1.008 2.328-1.127 4.946-.332 7.355.795 2.41 2.447 4.443 4.642 5.715l10.11 5.84c2.196 1.268 4.782 1.681 7.264 1.161s4.684-1.938 6.186-3.981l16.55-20.35c1.4-1.73 3.6-2.5 5.23-1.84 3.48 1.44 5.81 2.25 9.94 3.63 1.1.359 2.057 1.06 2.731 2.001.675.941 1.032 2.072 1.019 3.229l-.4 26.05c-.135 2.545.66 5.052 2.237 7.053 1.577 2.002 3.828 3.362 6.333 3.827l11.45 2c2.495.435 5.064-.052 7.226-1.371 2.162-1.32 3.77-3.381 4.524-5.799l8.5-24.77c.385-1.102 1.113-2.052 2.078-2.709s2.116-.987 3.282-.941h9.75c1.158-.025 2.294.316 3.245.975.952.659 1.671 1.603 2.055 2.695l8.47 24.67c.656 2.142 1.981 4.017 3.781 5.35 1.8 1.334 3.979 2.056 6.219 2.06.597.001 1.193-.052 1.78-.16l11.47-2c2.491-.457 4.732-1.803 6.307-3.787 1.574-1.985 2.375-4.473 2.253-7.003l-.4-26.16c-.008-1.153.352-2.278 1.026-3.213.674-.934 1.628-1.63 2.724-1.987 3.84-1.29 6.54-2.33 8.91-3.25l.6-.23c3.1-1.07 4.6.23 5.47 1.31l16.75 20.63c1.501 2.041 3.702 3.456 6.182 3.977 2.479.52 5.063.108 7.258-1.157l10.07-5.83c2.203-1.272 3.86-3.311 4.655-5.728.795-2.416.672-5.04-.345-7.372l-9.24-24.34c-.408-1.084-.464-2.27-.161-3.388.304-1.118.951-2.112 1.851-2.842 2.43-2 4.92-4 7.4-6.22.857-.773 1.939-1.25 3.088-1.361 1.148-.112 2.302.148 3.292.741l22.39 13.4c2.122 1.383 4.677 1.943 7.183 1.575 2.507-.368 4.792-1.64 6.427-3.575l7.4-8.9c1.642-1.936 2.511-4.409 2.443-6.946s-1.07-4.959-2.813-6.804l-17.06-19.67c-.758-.884-1.211-1.989-1.292-3.151-.081-1.161.214-2.318.842-3.299 1.71-2.71 3.34-5.57 4.82-8.44.556-1.027 1.422-1.852 2.474-2.358 1.052-.507 2.237-.668 3.386-.462l25.48 4.97c2.47.596 5.073.262 7.312-.939s3.958-3.184 4.828-5.571l3.95-10.88c.884-2.381.863-5.004-.059-7.371-.922-2.366-2.68-4.312-4.941-5.469l-22.8-12.67c-1.01-.571-1.809-1.452-2.279-2.513-.471-1.061-.586-2.245-.331-3.377l.24-1.27c.52-2.79 1-5.43 1.46-8.24.159-1.145.676-2.21 1.477-3.044.801-.833 1.845-1.392 2.983-1.596l25.69-4.14c2.519-.304 4.84-1.515 6.53-3.408 1.69-1.892 2.632-4.335 2.65-6.872zm-282.45 94c-1.246 2.167-2.989 4.007-5.084 5.37-2.096 1.362-4.485 2.208-6.971 2.468-2.486.259-4.999-.075-7.331-.975s-4.417-2.34-6.084-4.203c-22.529-24.91-34.968-57.32-34.89-90.906s12.667-65.939 35.31-90.744c1.676-1.862 3.77-3.299 6.11-4.193s4.859-1.219 7.349-.948c2.49.27 4.881 1.129 6.974 2.504 2.094 1.375 3.83 3.229 5.067 5.407l45.65 80.35c1.371 2.396 2.092 5.109 2.092 7.87s-.721 5.474-2.092 7.87zm74.45 47.18c-9.516.002-19.006-1.003-28.31-3-2.424-.542-4.686-1.646-6.603-3.225s-3.436-3.587-4.432-5.862c-.996-2.276-1.443-4.753-1.303-7.233s.862-4.891 2.108-7.04l46-80c1.384-2.411 3.379-4.413 5.785-5.806 2.405-1.392 5.136-2.125 7.915-2.124h92.14c2.482-.004 4.93.577 7.146 1.696 2.215 1.118 4.136 2.743 5.607 4.742 1.47 2 2.449 4.318 2.857 6.766s.233 4.958-.51 7.326c-17.49 54.32-68.4 93.76-128.4 93.76zm7.51-163.9-45.51-80.14c-1.233-2.152-1.943-4.564-2.072-7.041-.128-2.477.327-4.95 1.331-7.218s2.527-4.268 4.447-5.839 4.182-2.668 6.604-3.202c9.105-1.919 18.385-2.884 27.69-2.88 60 0 110.91 39.44 128.37 93.79.743 2.368.918 4.878.51 7.326s-1.387 4.766-2.857 6.766c-1.471 1.999-3.392 3.624-5.607 4.742-2.216 1.119-4.664 1.7-7.146 1.696h-92c-2.797.006-5.545-.732-7.962-2.138-2.418-1.406-4.419-3.429-5.798-5.862z" fill="url(#a)"/></svg>