<svg width="16" height="16" viewBox="0 0 16 16" fill="none" xmlns="http://www.w3.org/2000/svg">
<g id="icon_verified-domain" clip-path="url(#clip0_1779_14845)">
<path id="Vector" d="M7.66667 13.3333C6.54591 13.3333 5.45032 13.001 4.51844 12.3783C3.58656 11.7557 2.86025 10.8707 2.43135 9.83521C2.00246 8.79976 1.89024 7.66038 2.10889 6.56116C2.32754 5.46193 2.86723 4.45223 3.65973 3.65973C4.45223 2.86723 5.46193 2.32754 6.56116 2.10889C7.66038 1.89024 8.79976 2.00246 9.83521 2.43135C10.8707 2.86025 11.7557 3.58656 12.3783 4.51844C13.001 5.45032 13.3333 6.54591 13.3333 7.66667" stroke="#1F81E2" style="stroke:#1F81E2;stroke:color(display-p3 0.1216 0.5059 0.8863);stroke-opacity:1;" stroke-width="1.25" stroke-linecap="round" stroke-linejoin="round"/>
<path id="Vector_2" d="M2.36328 5.66699H12.9694" stroke="#1F81E2" style="stroke:#1F81E2;stroke:color(display-p3 0.1216 0.5059 0.8863);stroke-opacity:1;" stroke-width="1.25" stroke-linecap="round" stroke-linejoin="round"/>
<path id="Vector_3" d="M2.36328 9.66699H7.66633" stroke="#1F81E2" style="stroke:#1F81E2;stroke:color(display-p3 0.1216 0.5059 0.8863);stroke-opacity:1;" stroke-width="1.25" stroke-linecap="round" stroke-linejoin="round"/>
<path id="Vector_4" d="M7.66699 13.3333C6.28628 13.3333 5.16699 10.7963 5.16699 7.66667C5.16699 4.53705 6.28628 2 7.66699 2C9.04771 2 10.167 4.53705 10.167 7.66667C10.167 8.62974 10.0957 9.33043 10.0463 9.70046" stroke="#1F81E2" style="stroke:#1F81E2;stroke:color(display-p3 0.1216 0.5059 0.8863);stroke-opacity:1;" stroke-width="1.25" stroke-linecap="round" stroke-linejoin="round"/>
<path id="Vector_5" d="M14.5 10.5L12.0557 13.3333L10.7217 12.0003" stroke="#1F81E2" style="stroke:#1F81E2;stroke:color(display-p3 0.1216 0.5059 0.8863);stroke-opacity:1;" stroke-width="1.5" stroke-linecap="round" stroke-linejoin="round"/>
</g>
<defs>
<clipPath id="clip0_1779_14845">
<rect width="16" height="16" fill="white" style="fill:white;fill:white;fill-opacity:1;"/>
</clipPath>
</defs>
</svg>
