<svg width="15" height="23" viewBox="0 0 15 23" fill="none" xmlns="http://www.w3.org/2000/svg">
  <path d="M9.0001 0C6.07054 0 3.52589 2.0154 2.8549 4.86708L0.578472 14.5419C0.283081 15.7973 1.23561 17 2.52531 17H15.4749C16.7646 17 17.7171 15.7973 17.4217 14.5419L15.1453 4.86709C14.4743 2.0154 11.9297 0 9.0001 0Z" fill="url(#gradient)" />
  <path d="M12.7231 19.9655C13.0268 19.1947 12.3285 15.5 11.5001 15.5H6.5001C5.67167 15.5 4.97344 19.1947 5.27708 19.9655C5.86177 21.4497 7.30827 22.5 9.0001 22.5C10.6919 22.5 12.1384 21.4497 12.7231 19.9655Z" fill="url(#gradient" />
  <defs>
    <linearGradient id="gradient" x1="0" y1="0" x2="0" y2="100%">
      <stop offset="0%" stop-color="#A562D5" />
      <stop offset="100%" stop-color="#306FEB" />
    </linearGradient>
  </defs>
</svg>